# xmcd CD database file
#
# Track frame offsets:
#	150
#	4770
#	15130
#	28398
#	41650
#	72868
#	87785
#	101685
#	115913
#	131135
#	159718
#	179773
#	202398
#	217373
#	241450
#	247308
#	257053
#	270028
#	286666
#
# Disc length: 4105 seconds
#
# Revision: 0
# Processed by: cddbd v1.5.2PL0 Copyright (c) Steve Scherf et al.
# Submitted via: CDex 1.51
#
DISCID=1d100713
DTITLE=ERIC CLAPTON - Jewel Box 2(Rare Live And Unreleased)
DYEAR=1994
DGENRE=Blues
TTITLE0=Falstaff Beer(Radio Spot)
TTITLE1=I Want To Know
TTITLE2=I Feel Free 
TTITLE3=Strange Brew
TTITLE4=Sunshine Of Your Love
TTITLE5=Outside Woman Blues
TTITLE6=Tales Of Brave Ulysses
TTITLE7=Born Under A Bad Sign
TTITLE8=Change Of Address(Unreleased)
TTITLE9=Little Wing
TTITLE10=Evil
TTITLE11=Have You Ever Loved A Woman
TTITLE12=After Midnight
TTITLE13=I Shot The Sheriff
TTITLE14=Cocaine
TTITLE15=Knockin' On Heavens Door
TTITLE16=Sugar Sweet
TTITLE17=Rockin' Daddy
TTITLE18=Why Does Got To Be So Sad
EXTD=YEAR: 1994
EXTT0=
EXTT1=
EXTT2=
EXTT3=
EXTT4=
EXTT5=
EXTT6=
EXTT7=
EXTT8=
EXTT9=
EXTT10=
EXTT11=
EXTT12=
EXTT13=
EXTT14=
EXTT15=
EXTT16=
EXTT17=
EXTT18=
PLAYORDER=
